<?xml version="1.0" standalone="no"?>
<!DOCTYPE svg PUBLIC "-//W3C//DTD SVG 1.1//EN" "http://www.w3.org/Graphics/SVG/1.1/DTD/svg11.dtd" >
<!--
2013-9-30: Created.
-->
<svg>
<metadata>
Created by iconfont
</metadata>
<defs>

<font id="iconfont" horiz-adv-x="1024" >
  <font-face
    font-family="iconfont"
    font-weight="500"
    font-stretch="normal"
    units-per-em="1024"
    ascent="896"
    descent="-128"
  />
    <missing-glyph />
    
    <glyph glyph-name="x" unicode="x" horiz-adv-x="1001"
d="M281 543q-27 -1 -53 -1h-83q-18 0 -36.5 -6t-32.5 -18.5t-23 -32t-9 -45.5v-76h912v41q0 16 -0.5 30t-0.5 18q0 13 -5 29t-17 29.5t-31.5 22.5t-49.5 9h-133v-97h-438v97zM955 310v-52q0 -23 0.5 -52t0.5 -58t-10.5 -47.5t-26 -30t-33 -16t-31.5 -4.5q-14 -1 -29.5 -0.5
t-29.5 0.5h-32l-45 128h-439l-44 -128h-29h-34q-20 0 -45 1q-25 0 -41 9.5t-25.5 23t-13.5 29.5t-4 30v167h911zM163 247q-12 0 -21 -8.5t-9 -21.5t9 -21.5t21 -8.5q13 0 22 8.5t9 21.5t-9 21.5t-22 8.5zM316 123q-8 -26 -14 -48q-5 -19 -10.5 -37t-7.5 -25t-3 -15t1 -14.5
t9.5 -10.5t21.5 -4h37h67h81h80h64h36q23 0 34 12t2 38q-5 13 -9.5 30.5t-9.5 34.5q-5 19 -11 39h-368zM336 498v228q0 11 2.5 23t10 21.5t20.5 15.5t34 6h188q31 0 51.5 -14.5t20.5 -52.5v-227h-327z" />
    

    
    <glyph glyph-name="like" unicode="&#58948;" d="M945.594 168.817c0 30.636-10.314 54-30.546 67.572 12.294 7.074 30.33 42.12 30.33 73.008-1.206 51.066-49.626 88.938-122.689 88.938l-193.715-0.018c33.138 92.196 26.91 216.522-14.706 282.888-25.020 39.924-55.152 48.888-75.996 48.888-70.29 0-72.594-69.174-72.594-92.7 0-78.66-11.142-114.552-25.002-147.636-10.98-21.384-78.3-91.8-147.042-91.8l-128.825-0c-49.734 0-85.825-42.516-85.752-103.050l33.444-360.090c4.014-55.44 30.69-89.028 84.222-89.028 0 0 26.658-0.216 46.602-0.216 10.188 0 19.692 0.072 25.308 0.216 16.488 0.54 30.096 11.34 42.084 20.412 8.496 6.408 15.264 11.934 21.348 11.934 2.754 0 18.36-9.162 37.548-17.46 19.548-8.496 50.58-15.462 80.244-15.462h269.496c90.324 0 133.668 34.56 133.704 92.196 0 17.010-3.852 27.126-13.14 40.32 36.289 8.892 68.436 32.166 68.436 72.324 0 14.886-6.858 38.844-16.254 45.18 17.711 4.644 53.531 36.917 53.495 73.584zM267.301-117.941c-16.146-0.522-74.052 0-74.412 0-20.736 0-39.168 19.98-43.848 46.854l-33.444 374.274c0 27.99 22.068 58.698 51.516 58.698v-0.18l126.522-0.396c2.178 0 4.302 0.27 6.462 0.36l0-457.866c-5.85-4.194-11.34-8.226-15.246-11.16-5.347-4.033-14.311-10.206-17.551-10.584zM858.097 119.749c0 0-4.842 0-4.86 0l0.45-33.408c3.906-1.512 18.414-5.976 18.45-34.992-0.036-31.122-40.032-43.632-73.764-43.614h0.108l-0.577-31.842c13.68-3.15 18.666-15.372 18.648-34.956 0-34.236-27.288-58.878-98.046-58.878h-279.017c-13.338 0-40.464 7.938-56.088 15.642-14.742 7.254-38.268 20.826-46.476 25.398v444.637c70.164 19.854 128.052 81.648 142.65 110.178 15.894 37.764 23.886 77.202 23.886 163.764 0 43.020 15.48 48.78 31.932 48.78 14.562 0 37.692-16.38 49.392-35.082 34.632-55.206 42.768-174.186-0.324-263.268l-7.434-30.834 247.32 0.072c42.102-2.376 84.438-19.944 84.438-51.66l-0.288-9.936c0.072-0.396-1.080-27.504-15.156-39.456-11.808-10.008-21.402-10.368-21.402-10.368l-0.27-32.886c0 0 14.274-1.962 21.708-7.182 11.232-7.866 16.29-22.752 15.732-38.988-0.737-20.575-31.86-51.121-51.012-51.121z"  horiz-adv-x="1024" />

    
    <glyph glyph-name="icon25959" unicode="&#58969;" d="M568.32 297.58336l341.92384 341.92384c14.85824 14.86848 14.85824 38.9632 0 53.83168-14.86848 14.848-38.9632 14.848-53.83168 0L514.48832 351.41504 172.56448 693.34912c-14.86848 14.848-38.9632 14.848-53.83168 0-14.85824-14.86848-14.85824-38.9632 0-53.83168l341.92384-341.93408L118.7328-44.34048c-14.85824-14.86848-14.85824-38.9632 0-53.83168 7.43424-7.424 17.18272-11.1616 26.91072-11.1616s19.48672 3.7376 26.91072 11.1616l341.92384 341.92384 341.92384-341.92384c7.43424-7.424 17.18272-11.1616 26.91072-11.1616s19.48672 3.7376 26.91072 11.1616c14.85824 14.86848 14.85824 38.9632 0 53.83168L568.32 297.58336z"  horiz-adv-x="1024" />

    
    <glyph glyph-name="iconplusalt2" unicode="&#58893;" d="M544 748C278.912 748 64 533.088 64 268S278.912-212 544-212 1024 2.912 1024 268 809.088 748 544 748zM544-148C314.624-148 128 38.624 128 268S314.624 684 544 684 960 497.376 960 268 773.376-148 544-148zM800 300 576 300 576 524C576 541.664 561.664 556 544 556S512 541.664 512 524L512 300 288 300C270.336 300 256 285.664 256 268 256 250.336 270.336 236 288 236L512 236l0-224C512-5.664 526.336-20 544-20S576-5.664 576 12L576 236l224 0C817.664 236 832 250.336 832 268 832 285.664 817.664 300 800 300z"  horiz-adv-x="1024" />

    
    <glyph glyph-name="gaoxiao" unicode="&#58902;" d="M512 804c231.54 0 420-188.4 420-420 0-231.54-188.46-420-420-420-231.6 0-420 188.46-420 420C92 615.6 280.4 804 512 804M512 864C246.92 864 32 649.08 32 384c0-265.08 214.92-480 480-480 265.08 0 480 214.92 480 480C992 649.08 777.08 864 512 864L512 864zM452 444C445.46 524.64 396.68 564 326.66 564 326.48 564 326.36 564 326.18 564 258.26 564 212 504 209.84 443.28l60.24-1.02C269.18 488.04 290.96 512.28 332.3 512.3399999999999 372.68 512.46 393.86 478.68 392 444L452 444zM812 444c-6.54 80.64-55.32 120-125.4 120-0.12 0-0.24 0-0.42 0C618.26 564 572 504 569.84 443.28l60.24-1.02c-0.96 45.78 20.88 69.96 62.16 70.02C732.68 512.46 753.86 478.68 752 444L812 444zM813.08 324l-53.58 0c-62.82-113.46-138.78-184.68-266.34-178.2C389.12 151.14 299.78 224.64 272 324L208.16 323.76c34.92-124.74 150.24-227.22 280.44-237.24 7.8-0.6 15.6-1.32 23.28-1.32C647.96 85.20000000000005 767 197.46000000000004 813.08 324z"  horiz-adv-x="1024" />

    
    <glyph glyph-name="search" unicode="&#58887;" d="M819.2 18.4l-147.2 150.4c89.6 108.8 83.2 268.8-16 368C608 591.2 537.6 620 467.2 620c-73.6 0-140.8-28.8-192-80-105.6-105.6-105.6-281.6 0-387.2 51.2-51.2 118.4-80 192-80 64 0 124.8 22.4 176 67.2l147.2-150.4c3.2-3.2 9.6-6.4 16-6.4 6.4 0 12.8 3.2 16 6.4C828.8-4 828.8 12 819.2 18.4zM307.2 184.8c-86.4 89.6-86.4 233.6 0 323.2 41.6 41.6 99.2 67.2 160 67.2 60.8 0 115.2-22.4 160-67.2 86.4-89.6 86.4-233.6 0-323.2-41.6-41.6-99.2-67.2-160-67.2C406.4 117.6 348.8 140 307.2 184.8z"  horiz-adv-x="1024" />

    
    <glyph glyph-name="jushoucang" unicode="&#58947;" d="M908.8 681.6c-9.6 12.8-19.2 22.4-28.8 32-112 115.2-230.4 105.6-342.4 16-9.6-6.4-19.2-16-28.8-25.6-9.6 9.6-19.2 16-28.8 25.6-112 86.4-230.4 99.2-342.4-16-9.6-9.6-19.2-19.2-25.6-32-134.4-195.2-60.8-387.2 137.6-560 44.8-38.4 89.6-73.6 137.6-102.4 16-9.6 32-19.2 44.8-28.8 9.6-6.4 12.8-9.6 19.2-9.6 3.2-3.2 6.4-3.2 12.8-6.4 3.2-3.2 9.6-3.2 16-6.4 25.6-6.4 64-3.2 89.6 12.8 3.2 0 9.6 3.2 16 9.6 12.8 6.4 28.8 16 44.8 28.8 48 28.8 92.8 64 137.6 102.4C969.6 297.6 1043.2 489.6 908.8 681.6zM736 163.2c-41.6-35.2-86.4-70.4-131.2-99.2-16-9.6-28.8-19.2-44.8-25.6-6.4-3.2-12.8-6.4-16-9.6-6.4-3.2-16-6.4-25.6-9.6-3.2 0-6.4 0-9.6 0-6.4 0-12.8 0-16 0-3.2 0-3.2 0-3.2 0 0 0 0 0 0 0 0 0 0 0 0 0 0 0-3.2 0-3.2 3.2-3.2 0-6.4 3.2-9.6 3.2-3.2 3.2-9.6 6.4-16 9.6-12.8 6.4-28.8 16-44.8 25.6-44.8 28.8-89.6 60.8-131.2 99.2-179.2 160-243.2 323.2-131.2 489.6 6.4 9.6 16 16 22.4 25.6 89.6 96 182.4 86.4 275.2 12.8 9.6-6.4 16-12.8 22.4-19.2 0 0 0 0 0 0l28.8-32c3.2-3.2 3.2-3.2 6.4-6.4 0 0 0 0 0 0l0 0c3.2 3.2 9.6 9.6 16 16 12.8 12.8 25.6 25.6 41.6 38.4 92.8 73.6 185.6 83.2 275.2-12.8 6.4-9.6 16-16 22.4-25.6C982.4 489.6 918.4 323.2 736 163.2z"  horiz-adv-x="1024" />

    
    <glyph glyph-name="shezhi" unicode="&#58955;" d="M512 198.4c102.4 0 182.4 83.2 182.4 185.6 0 102.4-83.2 185.6-182.4 185.6-102.4 0-182.4-83.2-182.4-185.6C329.6 281.6 412.8 198.4 512 198.4L512 198.4zM512 249.6c-73.6 0-134.4 60.8-134.4 134.4 0 73.6 60.8 134.4 134.4 134.4 73.6 0 134.4-60.8 134.4-134.4C646.4 310.4 585.6 249.6 512 249.6L512 249.6zM249.015232 52.821408c35.2-28.8 73.6-51.2 112-67.2 41.6 38.4 96 60.8 150.4 60.8 57.6 0 108.8-22.4 150.4-60.8 41.6 16 80 38.4 112 67.2-12.8 54.4-3.2 112 22.4 163.2 28.8 48 73.6 86.4 128 102.4 3.2 22.4 6.4 44.8 6.4 67.2 0 22.4-3.2 44.8-6.4 67.2-54.4 16-99.2 54.4-128 102.4-28.8 48-35.2 108.8-22.4 163.2-35.2 28.8-73.6 51.2-112 67.2-41.6-38.4-92.8-60.8-150.4-60.8-54.4 0-108.8 22.4-150.4 60.8-41.6-16-80-38.4-112-67.2 12.8-54.4 3.2-112-22.4-163.2-28.8-48-73.6-86.4-128-102.4-3.2-22.4-6.4-44.8-6.4-67.2 0-22.4 3.2-44.8 6.4-67.2 54.4-16 99.2-54.4 128-102.4C252.215232 164.821408 261.815232 107.221408 249.015232 52.821408M361.015232-62.378592c-54.4 19.2-105.6 48-150.4 89.6-6.4 6.4-9.6 16-6.4 22.4 16 48 9.6 99.2-16 140.8-25.6 44.8-64 73.6-112 83.2-9.6 3.2-16 9.6-16 19.2-6.4 28.8-9.6 60.8-9.6 89.6 0 28.8 3.2 57.6 9.6 89.6 3.2 9.6 9.6 16 16 19.2 48 12.8 89.6 41.6 112 83.2 25.6 44.8 28.8 92.8 16 140.8-3.2 9.6 0 19.2 6.4 22.4 44.8 38.4 96 67.2 150.4 89.6 9.6 3.2 16 0 22.4-6.4 35.2-35.2 80-57.6 128-57.6 48 0 96 19.2 128 57.6 6.4 6.4 16 9.6 22.4 6.4 54.4-19.2 105.6-48 150.4-89.6 6.4-6.4 9.6-16 6.4-22.4-16-48-9.6-99.2 16-140.8 25.6-44.8 64-73.6 112-83.2 9.6-3.2 16-9.6 16-19.2 6.4-28.8 9.6-60.8 9.6-89.6 0-28.8-3.2-57.6-9.6-89.6-3.2-9.6-9.6-16-16-19.2-48-12.8-89.6-41.6-112-83.2-25.6-44.8-28.8-92.8-16-140.8 3.2-9.6 0-19.2-6.4-22.4-44.8-38.4-96-67.2-150.4-89.6-9.6-3.2-16 0-22.4 6.4-35.2 35.2-80 57.6-128 57.6-48 0-96-19.2-128-57.6-3.2-3.2-9.6-6.4-16-6.4C364.215232-62.378592 361.015232-62.378592 361.015232-62.378592z"  horiz-adv-x="1024" />

    
    <glyph glyph-name="xiangshangjiantou" unicode="&#58973;" d="M966.4 227.2l-435.2 432c-9.6 9.6-25.6 9.6-35.2 0l-441.6-432c-9.6-9.6-9.6-25.6 0-35.2 9.6-9.6 25.6-9.6 35.2 0l425.6 416 416-416c9.6-9.6 25.6-9.6 35.2 0S976 217.6 966.4 227.2z"  horiz-adv-x="1024" />

    
    <glyph glyph-name="xiangxiajiantou" unicode="&#58974;" d="M966.4 572.8c-9.6 9.6-25.6 9.6-35.2 0l-416-416-425.6 416c-9.6 9.6-25.6 9.6-35.2 0-9.6-9.6-9.6-25.6 0-35.2l441.6-432c9.6-9.6 25.6-9.6 35.2 0l435.2 432C976 550.4 976 563.2 966.4 572.8z"  horiz-adv-x="1024" />

    
    <glyph glyph-name="xiangyoujiantou" unicode="&#58975;" d="M761.6 406.4l-432 435.2c-9.6 9.6-25.6 9.6-35.2 0-9.6-9.6-9.6-25.6 0-35.2l416-416-416-425.6c-9.6-9.6-9.6-25.6 0-35.2s25.6-9.6 35.2 0l432 441.6C771.2 380.8 771.2 396.8 761.6 406.4z"  horiz-adv-x="1024" />

    
    <glyph glyph-name="xiangzuojiantou" unicode="&#58976;" d="M729.6-35.2l-416 425.6 416 416c9.6 9.6 9.6 25.6 0 35.2-9.6 9.6-25.6 9.6-35.2 0l-432-435.2c-9.6-9.6-9.6-25.6 0-35.2l432-441.6c9.6-9.6 25.6-9.6 35.2 0C739.2-60.8 739.2-44.8 729.6-35.2z"  horiz-adv-x="1024" />

    
    <glyph glyph-name="shipin" unicode="&#58939;" d="M384.00041 128.004663c0 70.693556 57.30163 128.001792 127.998489 128.001792 70.704567 0 128.000691-57.308237 128.000691-128.001792 0-70.692454-57.296124-128.000691-128.000691-128.000691C441.30204 0.003972 384.00041 57.312209 384.00041 128.004663zM672.003892 384.004944c0 70.693556 57.296124 128.000691 127.995185 128.000691 70.700162 0 128.003994-57.307135 128.003994-128.000691 0-70.701263-57.303832-127.998489-128.003994-127.998489C729.300016 256.006455 672.003892 313.30258 672.003892 384.004944zM384.00041 639.997517c0 70.703466 57.30163 128.001792 127.998489 128.001792 70.704567 0 128.000691-57.298326 128.000691-128.001792 0-70.694657-57.296124-127.991882-128.000691-127.991882C441.30204 512.005635 384.00041 569.30286 384.00041 639.997517zM128.002332 384.004944c0 70.693556 57.300529 128.000691 127.998489 128.000691 70.704567 0 128.000691-57.307135 128.000691-128.000691 0-70.701263-57.296124-127.998489-128.000691-127.998489C185.30286 256.006455 128.002332 313.30258 128.002332 384.004944zM448.000205 384.004944c0 35.347328 28.653568 64.000896 63.998694 64.000896 35.352834 0 64.003098-28.653568 64.003098-64.000896 0-35.357238-28.650264-64.000896-64.003098-64.000896C476.654874 320.004048 448.000205 348.647706 448.000205 384.004944zM784.324512-49.751623c31.518704-46.01286 105.437465-78.248399 191.674552-78.248399 16.524636 0 48.000397 99.358135 48.000397 99.358135-59.075548 8.588803-108.348849 32.718934-135.995986 64.963282 84.456562 91.315491 135.995986 213.476898 135.995986 347.681347C1023.99946 666.774762 794.773121 896 512 896 229.22798 896 0.00054 666.774762 0.00054 384.004944 0.00054 101.227419 229.22798-127.998921 512-127.998921 612.052947-127.998921 705.460582-99.364072 784.324512-49.751623z"  horiz-adv-x="1024" />

    
    <glyph glyph-name="weibiaoti3" unicode="&#58880;" d="M877.05979259 655.85303703L581.90506667 655.85303703l116.50844444 139.81013334c0 0 0 0 7.76722964 0 15.53445925 0 31.06891852 15.53445925 31.0689185 31.06891852 0 15.53445925-15.53445925 31.06891852-31.0689185 31.06891852C682.87905185 865.56823703 667.34459259 850.03377778 667.34459259 826.73208889c0-7.76722963 0-7.76722963 0-7.76722964l-132.0429037-155.34459258L527.53445925 663.62026667l-132.0429037 155.34459258c0 0 0 7.76722963 0 7.76722964 0 15.53445925-15.53445925 31.06891852-31.06891852 31.06891852C348.88817778 865.56823703 333.35371852 850.03377778 333.35371852 826.73208889c0-15.53445925 15.53445925-31.06891852 31.06891851-31.06891852 0 0 0 0 7.76722964 0l116.50844444-139.81013334L193.54358518 655.85303703C154.70743703 655.85303703 123.63851852 624.78411852 123.63851852 593.7152l0-473.80100741c0-38.83614815 31.06891852-69.90506667 69.90506666-69.90506667l683.51620741 0c38.83614815 0 69.90506667 31.06891852 69.90506666 69.90506667L946.96485925 593.7152C939.19762963 624.78411852 908.12871111 655.85303703 877.05979259 655.85303703M737.24965925 182.05202963c0-38.83614815-31.06891852-69.90506667-69.90506666-69.90506666L263.44865185 112.14696297c-38.83614815 0-69.90506667 31.06891852-69.90506667 69.90506666L193.54358518 523.81013333c0 38.83614815 31.06891852 69.90506667 69.90506667 69.90506667L667.34459259 593.7152c38.83614815 0 69.90506667-31.06891852 69.90506666-69.90506667L737.24965925 182.05202963zM838.22364445 283.02601482c-38.83614815 0-69.90506667 31.06891852-69.90506667 69.90506666 0 38.83614815 31.06891852 69.90506667 69.90506667 69.90506667 38.83614815 0 69.90506667-31.06891852 69.90506666-69.90506667C908.12871111 314.09493333 877.05979259 283.02601482 838.22364445 283.02601482M838.22364445 453.90506667c-38.83614815 0-69.90506667 31.06891852-69.90506667 69.90506666 0 38.83614815 31.06891852 69.90506667 69.90506667 69.90506667 38.83614815 0 69.90506667-31.06891852 69.90506666-69.90506667C908.12871111 484.97398518 877.05979259 453.90506667 838.22364445 453.90506667"  horiz-adv-x="1024" />

    
    <glyph glyph-name="denglu" unicode="&#58896;" d="M969.216-105.631744c0 0.23552-0.024576 0.464896-0.03072 0.69632-0.651264 124.207104-48.084992 238.440448-133.777408 321.890304-56.9344 55.443456-127.225856 94.142464-204.48256 113.625088 99.168256 45.012992 168.306688 144.971776 168.306688 260.780032C799.232 749.176832 670.840832 877.568 513.024 877.568S226.816 749.176832 226.816 591.36c0-115.808256 69.138432-215.76704 168.306688-260.780032-77.256704-19.484672-147.54816-58.181632-204.48256-113.625088-85.510144-83.273728-132.921344-197.197824-133.767168-321.101824-0.083968-0.731136-0.13312-1.472512-0.13312-2.22208 0-11.214848 9.699328-19.755008 20.916224-19.755008 10.682368 0 19.49696 7.364608 20.092928 18.604032l0.045056 0c0 234.678272 178.511872 411.648 415.232 411.648 236.271616 0 414.539776-176.304128 415.215616-410.3168-0.012288-0.274432-0.047104-0.546816-0.047104-0.8192 0-11.216896 10.692608-19.116032 21.907456-19.116032 10.582016 0 18.51392 8.2432 19.085312 18.604032l0.03072 0c0 0.362496-0.012288 0.722944-0.012288 1.083392C969.203712-106.166272 969.224192-105.90208 969.216-105.631744zM267.776 591.36C267.776 726.58944 377.79456 836.608 513.024 836.608s245.248-110.01856 245.248-245.248S648.25344 346.112 513.024 346.112 267.776 456.13056 267.776 591.36z"  horiz-adv-x="1024" />

    
    <glyph glyph-name="list" unicode="&#58882;" d="M196.535165 661.729395l635.021871 0c19.48375 0 35.279504 15.793708 35.279504 35.279504 0 19.485797-15.795754 35.278481-35.279504 35.278481L196.535165 732.287381c-19.48375 0-35.278481-15.793708-35.278481-35.278481C161.256684 677.52208 177.052438 661.729395 196.535165 661.729395zM831.557036 450.055438 196.535165 450.055438c-19.48375 0-35.278481-15.795754-35.278481-35.279504 0-19.48375 15.795754-35.276435 35.278481-35.276435l635.021871 0c19.48375 0 35.279504 15.793708 35.279504 35.276435C866.836541 434.259684 851.040786 450.055438 831.557036 450.055438zM831.557036 191.340095 196.535165 191.340095c-19.48375 0-35.278481-15.793708-35.278481-35.276435s15.795754-35.278481 35.278481-35.278481l635.021871 0c19.48375 0 35.279504 15.795754 35.279504 35.278481S851.040786 191.340095 831.557036 191.340095z"  horiz-adv-x="1024" />

    
    <glyph glyph-name="kexue" unicode="&#58964;" d="M540.175276 355.426432c15.910154 15.916297 15.910154 41.703873 0 57.620171-15.916297 15.919369-41.703873 15.919369-57.62017 0-15.910154-15.916297-15.910154-41.703873 0-57.620171 15.915273-15.919369 41.703873-15.919369 57.62017 0M252.042683 124.923225l345.779385 172.863583 172.866655 345.7886-345.779385-172.905563L252.042683 124.923225z m432.19633 432.203497l-115.228054-230.513447-230.51959-115.266962 115.228054 230.513447 230.51959 115.266962zM511.365191 832.478154c-247.551922 0-448.241637-200.682548-448.241637-448.241636s200.689715-448.241637 448.241637-448.241637c247.542707 0 448.240613 200.682548 448.240613 448.241637S758.907898 832.478154 511.365191 832.478154m20.37327-854.698513V37.868399c0 11.244309-9.127938 20.37327-20.37327 20.37327-11.246356 0-20.374294-9.128962-20.374294-20.37327v-60.089782C282.255491-11.876046 115.223959 155.164702 104.869407 363.860176h60.128689c11.245333 0 20.37327 9.112579 20.37327 20.375318 0 11.261715-9.128962 20.374294-20.37327 20.374294H104.869407C115.222935 613.290927 282.254467 780.348057 490.990897 790.693394v-60.089782c0-11.261715 9.127938-20.37327 20.374294-20.37327 11.245333 0 20.37327 9.112579 20.37327 20.37327V790.693394c208.73643-10.345337 375.767962-177.402467 386.124562-386.082582H857.732286c-11.244309 0-20.37327-9.112579-20.37327-20.374294 0-11.262739 9.128962-20.375318 20.37327-20.375318h60.131761c-10.357624-208.695474-177.388133-375.737245-386.125586-386.081559"  horiz-adv-x="1024" />

    
    <glyph glyph-name="shipin1" unicode="&#58899;" d="M512 896a512 512 0 1 1 512-512A512 512 0 0 1 512 896z m0-942.08a430.08 430.08 0 1 0 430.08 430.08 430.08 430.08 0 0 0-430.08-430.08zM723.626667 401.2032L430.08 570.7776a19.797333 19.797333 0 0 1-29.764267-17.2032v-339.217067a19.797333 19.797333 0 0 1 29.764267-17.134933l293.546667 169.642667a19.797333 19.797333 0 0 1 0 34.338133z"  horiz-adv-x="1024" />

    
    <glyph glyph-name="bofang" unicode="&#58883;" d="M511.673-60.565c-246.691 0-446.67 199.979-446.67 446.67s199.978 446.67 446.67 446.67 446.67-199.979 446.67-446.67-199.979-446.67-446.67-446.67v0zM511.673 804.848c-231.273 0-418.753-187.48-418.753-418.753 0-231.271 187.48-418.752 418.753-418.752s418.753 187.481 418.753 418.752c-0 231.273-187.481 418.753-418.753 418.753v0zM687.66 361.668c-14.47-8.561-249.028-144.498-266.151-154.027-12.544-6.988-30.718 3.090-30.718 18.984 0 16.135 0 299.306 0 310.435 0 14.433 16.006 28.141 30.718 19.7 11.791-6.764 246.042-142.348 266.151-154.026 13.205-7.669 12.982-33.399 0-41.066v0z"  horiz-adv-x="1024" />

    
    <glyph glyph-name="zongyi" unicode="&#59247;" d="M660.90987435 860.92723103c-136.41464576 0-245.74962212-113.50373481-245.7496221-254.08437732 0-8.32923184 0-16.66122537 1.03977313-24.99045722l-288.44798205-399.86802805-10.41153981-13.53776345 11.4526938-12.49660944 38.52960147-42.69283656c-2.08230796-4.1673776-4.1673776-9.3731475-6.24830472-15.6200714-11.45269379-29.15645398-15.62007139-60.39935844-9.3731475-89.55305074 8.32923184-36.44729354 32.28129676-66.64628234 73.93159851-87.47074277 52.06598407-24.99045721 92.67789351-15.62007139 193.68778056 29.15645398 39.57075547 17.70099851 59.35682361 24.99045721 82.26635372 31.24014278 45.81906019 12.49660945 82.26635372 8.32923184 116.62995843-16.66122538 9.3731475-7.28945871 22.90814925-5.20715074 29.15645398 4.16737761 7.28945871 9.3731475 5.20715074 22.90814925-4.1673776 29.15645398-44.77790621 33.32245074-94.76020148 38.52960148-152.03195547 22.90814925-24.99045721-7.28945871-46.85883333-15.62007139-88.51189675-33.32245073-89.55305074-39.57075547-121.83710919-47.90136815-158.28026017-30.19760795-30.19760796 14.58029824-45.81906019 34.36222388-51.02621095 58.31290794-4.1673776 18.7421525-1.03977314 40.61190944 6.24830472 61.43775074l39.57075548-44.7779062 13.53776342-15.6200714 15.6200714 13.53776343 376.9598788 321.76767111c5.20715074 0 10.41153981-1.03977314 16.66122536-1.03977314 136.41464576 0 245.74962212 113.50373481 245.74962214 254.08437732-1.03977314 142.66156963-111.42004602 256.16806612-246.7935378 256.16806613zM255.83193388 76.80986545999997l-84.34728085 94.76020148 256.16806613 354.05034872c24.99045721-78.10035695 86.42820796-138.49695371 162.44625695-162.44625696l-334.26428056-286.3629124zM660.90987435 395.45269379c-112.46119999 0-203.05816639 94.76020148-203.05816639 211.38877906s91.63673954 211.38877907 203.05816639 211.38877909c112.46119999 0 203.05816639-94.76020148 203.05816641-211.38877909 0-116.62995844-90.5969664-211.38877907-203.05816641-211.38877906zM428.69249231 382.96022686000003l-80.17990322-90.5969664c-7.28945871-8.32923184-7.28945871-21.86975696 2.08230794-30.19760796 8.32923184-7.28945871 21.86975696-7.28945871 30.19760796 2.08230796l80.17990323 90.5969664c7.28945871 8.32923184 7.28945871 21.86975696-2.08230796 30.19760796-9.3731475 7.28945871-22.90814925 6.24830474-30.19760795-2.08230796z"  horiz-adv-x="1024" />

    
    <glyph glyph-name="tiyu" unicode="&#58881;" d="M319.92097813 365.26058344c12.02257781 11.11947281-19.86829687 68.01505219-25.11759188 80.09407312-5.24929406 12.07902188-0.11288812 13.88523094 6.77328375 13.4901225 6.82972687-0.39510844 82.85983031 5.30573813 82.85983031 5.30573813s-5.24929406 54.75070594 12.19191 72.07902187c0 0 4.91063063 3.78174937-2.42709375 2.93508938l-175.14581344-25.28692407s-33.07619906-3.55597406-15.46566281-35.50329187c17.55409219-31.94731875 86.35936031-109.1063025 86.35936032-109.10630344s17.94920063-15.12699938 29.9717775-4.00752562zM529.66698031 547.34901188c50.12229562 0 90.76199438 40.63969875 90.76199438 90.76199437s-40.63969875 90.76199438-90.76199438 90.76199438-90.76199438-40.63969875-90.76199437-90.76199438S479.54468469 547.34901188 529.66698031 547.34901188z m263.480715-11.62746938l-139.47318937-94.20507937S547.2210725 498.18626531 514.03198531 511.3941675c-33.24553125 13.20790219-45.88899375-13.4901225-45.88899375-13.4901225-22.06961437-40.4139225 16.9332075-59.66133562 16.9332075-59.66133562s140.09407312-55.37158969 160.30103532-67.16839125c20.26340531-11.79680156 35.16462844 3.38664188 35.16462843 3.38664187L823.51458125 502.75823156c4.40263406 3.95108156 10.61147719 14.788335-1.97554125 30.14110969-12.53057344 15.40921875-28.39134562 2.82220125-28.39134469 2.82220125zM892.03762906 862.02445875H131.96237094C76.7601125 862.02445875 32 817.26434625 32 762.00564469v-758.04327375c0-55.2022575 44.7601125-99.96237094 99.96237094-99.96237094h760.01881406c55.2022575 0 99.96237094 44.7601125 99.96237094 99.96237094v758.04327375c0.05644406 55.25870156-44.70366844 100.018815-99.90592688 100.01881406z m26.75446875-849.76481625c0-22.06961437-17.89275656-40.018815-40.018815-40.018815H141.44496687c-22.06961437 0-40.018815 17.89275656-40.01881406 40.018815V753.8212603100001c0 22.06961437 17.89275656 40.018815 40.01881407 40.018815h737.38475999c22.06961437 0 40.018815-17.89275656 40.018815-40.018815V12.25964250000004z m-324.327375 286.5098775l-202.23894656 79.5860775s-123.8946375-267.65757281-128.18438437-275.95484531c-4.28974594-8.29727156-22.1825025-37.47883312-0.67732782-54.92003719 21.50517375-17.38476 39.51081844 5.36218219 39.51081844 5.36218219l106.11476906 137.21542875s143.76293531 40.865475 162.55879594 45.211665c18.79586062 4.34619 26.58513656 4.57196625 41.88146813 28.05268031 15.2398875 23.42427094-18.96519281 35.44684875-18.96519282 35.44684875z"  horiz-adv-x="1024" />

    
    <glyph glyph-name="like1" unicode="&#58921;" d="M940.8 659.2c-51.2 51.2-128 76.8-198.4 76.8-64 0-134.4-19.2-185.6-70.4-19.2-12.8-32-32-44.8-32-12.8 0-25.6 12.8-51.2 32-51.2 44.8-121.6 70.4-185.6 70.4-70.4 0-140.8-25.6-192-76.8-108.8-102.4-108.8-275.2 0-371.2l390.4-352c6.4-6.4 25.6-12.8 44.8-12.8 12.8 0 32 6.4 38.4 12.8l390.4 352c102.4 96 102.4 268.8-6.4 371.2z"  horiz-adv-x="1024" />

    
    <glyph glyph-name="like2" unicode="&#58944;" d="M512 665.6c64 112 128 169.6 256 169.6 140.8 0 256-102.4 256-224 0-224-256-451.2-512-675.2C256 160 0 384 0 608c0 124.8 115.2 224 256 224 128 3.2 192-54.4 256-166.4"  horiz-adv-x="1024" />

    
    <glyph glyph-name="shanghaishikexuejishuweiyuanhui" unicode="&#58906;" d="M547.71868156 133.49713125000005c-7.55990531 0-15.11981062 0-22.40972062 0.21599719a911.07661125 911.07661125 0 0 0-343.97569969 67.49915625C83.86447906 244.81673999999998 30.67514469 303.56800499999997 32.02512781 366.61221750000004c1.07998687 61.28923406 53.72932875 116.82753937 147.95815031 156.40904437a883.05096187 883.05096187 0 0 0 331.28585907 57.53628094c7.55990531 0 15.11981062 0 22.40971968-0.21599719a910.56361781 910.56361781 0 0 0 343.9756997-67.49915625c97.46878125-43.60445531 150.38812031-102.32872125 149.30813437-165.3999328-1.07998687-61.28923406-53.72932875-116.82753937-147.95815125-156.40904438a883.05096187 883.05096187 0 0 0-331.28585813-57.53628094z m-36.44954437 404.9949375a840.36449531 840.36449531 0 0 1-315.08606157-54.26932125c-76.94903813-32.399595-121.49848125-75.38305781-122.30847093-118.2585225-0.80998969-44.33344594 44.54944313-90.25987219 124.46844375-125.980425A867.90415125 867.90415125 0 0 1 526.11895156 176.04859968999995c7.01991188 0 14.30982094-0.21599719 21.59973-0.21599719a840.36449531 840.36449531 0 0 1 315.08606063 54.26932125c76.94903813 32.399595 121.49848125 75.38305781 122.30847187 118.25852156 0.80998969 44.33344594-44.54944313 90.25987219-124.46844469 126.007425a869.55113063 869.55113063 0 0 1-327.77590218 63.90820125c-7.01991188 0.05399906-14.30982094 0.10799906-21.59973 0.10799906z m226.25717156-618.29227125c-55.07931188 0-122.03847469 30.37462031-193.58758031 87.82990219a986.59466719 986.59466719 0 0 0-199.52750625 226.01417437 932.379345 932.379345 0 0 0-139.85825156 323.67195469c-19.70975344 105.59568-1.61997937 182.89571344 50.48936906 217.67127937a117.66452906 117.66452906 0 0 0 66.41916937 18.89976375c55.07931188 0 122.03847469-30.37462031 193.58758032-87.82990218a986.59466719 986.59466719 0 0 0 199.52750625-226.01417532 932.48734406 932.48734406 0 0 0 139.85825156-323.64495468c19.43975719-105.62268 1.61997937-182.92271344-50.75936532-217.69827844a116.77354031 116.77354031 0 0 0-66.14917312-19.06176188zM321.46150906 752.00539969a76.38204563 76.38204563 0 0 1-43.19946-11.85285188c-36.71954063-24.43469437-48.5993925-88.09989844-32.399595-174.66081656a882.32197125 882.32197125 0 0 1 133.64832937-308.1471478 933.32433375 933.32433375 0 0 1 190.61761782-216.29429626c63.17921063-50.67836625 122.57846813-78.5960175 167.3979075-78.5960175a76.97603813 76.97603813 0 0 1 43.19946 11.82585187c36.71954063 24.46169438 48.5993925 88.12689844 32.399595 174.66081656a887.18191031 887.18191031 0 0 1-133.64832938 307.85015157 939.588255 939.588255 0 0 1-190.61761782 216.29429718c-63.17921063 50.84036438-122.57846813 78.75801562-167.39790749 78.75801469z m24.0297-847.7894025a113.20958531 113.20958531 0 0 0-55.88930156 13.87782656c-54.80931469 30.40162031-78.83901469 106.00067531-67.7691525 212.86533938a925.38643312 925.38643312 0 0 0 113.3985825 333.98582531c68.30914594 125.25143438 156.32804625 231.65710406 241.64697939 291.97435031a20.81673938 20.81673938 0 0 0 29.1596353-5.10293625 21.41073281 21.41073281 0 0 0-5.12993625-29.42963251c-80.18899781-56.69929125-163.61795437-158.00202469-228.95713782-277.82652656a884.64394219 884.64394219 0 0 1-108.53864343-318.00202499c-9.17988563-87.586905 7.8299025-150.09112406 46.43941968-171.47485688s99.89875125-2.29497094 168.47789438 52.32534563a877.62402937 877.62402937 0 0 1 208.70739094 262.51771875A854.18832281 854.18832281 0 0 1 797.46555969 613.4431321899999a20.95173844 20.95173844 0 1 0 41.84947688-2.05197469 896.65879219 896.65879219 0 0 0-115.55855626-361.7954775 924.52244343 924.52244343 0 0 0-219.23725875-275.3965575c-58.31927063-46.38542062-112.85858906-70.1721225-159.0280125-70.1721225zM642.75749281 757.8373275A105.43368187 105.43368187 0 1 1 748.32617375 864a105.86567625 105.86567625 0 0 1-105.56868094-106.35167062z"  horiz-adv-x="1062" />

    
    <glyph glyph-name="play" unicode="&#59296;" d="M810.4 430.2L253.6 761.6c-6.8 4-13.8 6.4-21.8 6.4-21.8 0-39.6-18-39.6-40H192v-688h0.2c0-22 17.8-40 39.6-40 8.2 0 15 2.8 22.4 6.8l556.2 331c13.2 11 21.6 27.6 21.6 46.2s-8.4 35-21.6 46.2z"  horiz-adv-x="1024" />

    
    <glyph glyph-name="bofang1" unicode="&#58884;" d="M512-128C229.28-128 0.096 101.216 0.096 384S229.28 896 512 896s511.904-229.216 511.904-512S794.72-128 512-128z m0 992C246.944 864 32.096 649.088 32.096 384S246.944-96 512-96s479.904 214.912 479.904 480c0 265.088-214.848 480-479.904 480z m127.968-682.688h-21.344a42.656 42.656 0 0 0-42.656 42.656v319.936c0 23.552 19.104 42.656 42.656 42.656h21.344c23.552 0 42.656-19.104 42.656-42.656v-319.936c0-23.552-19.104-42.656-42.656-42.656z m-234.624 0H384a42.656 42.656 0 0 0-42.656 42.656v319.936c0 23.552 19.104 42.656 42.656 42.656h21.344c23.552 0 42.656-19.104 42.656-42.656v-319.936c0-23.552-19.104-42.656-42.656-42.656z"  horiz-adv-x="1024" />

    
    <glyph glyph-name="like1-copy" unicode="&#59297;" d="M940.8 659.2c-51.2 51.2-128 76.8-198.4 76.8-64 0-134.4-19.2-185.6-70.4-19.2-12.8-32-32-44.8-32-12.8 0-25.6 12.8-51.2 32-51.2 44.8-121.6 70.4-185.6 70.4-70.4 0-140.8-25.6-192-76.8C-25.6 556.8-25.6 384 83.2 288L473.6-64c6.4-6.4 25.6-12.8 44.8-12.8 12.8 0 32 6.4 38.4 12.8l390.4 352c102.4 96 102.4 268.8-6.4 371.2z"  horiz-adv-x="1024" />

    


  </font>
</defs>
</svg>
